
<svg width="512" height="512" viewBox="0 0 512 512" fill="none" xmlns="http://www.w3.org/2000/svg">
  <defs>
    <radialGradient id="bgGradient" cx="0.3" cy="0.3" r="0.8">
      <stop offset="0%" style="stop-color:#3B82F6;stop-opacity:1" />
      <stop offset="100%" style="stop-color:#2563EB;stop-opacity:1" />
    </radialGradient>
    <radialGradient id="softGradient" cx="0.3" cy="0.3" r="0.7">
      <stop offset="0%" style="stop-color:#FFFFFF;stop-opacity:0.2" />
      <stop offset="70%" style="stop-color:#FFFFFF;stop-opacity:0.05" />
      <stop offset="100%" style="stop-color:#FFFFFF;stop-opacity:0" />
    </radialGradient>
    <linearGradient id="accentGradient" x1="0%" y1="0%" x2="100%" y2="100%">
      <stop offset="0%" style="stop-color:#22C55E" />
      <stop offset="100%" style="stop-color:#16A34A" />
    </linearGradient>
    <filter id="dropShadow" x="-20%" y="-20%" width="140%" height="140%">
      <feDropShadow dx="0" dy="8" stdDeviation="12" flood-color="#2563EB" flood-opacity="0.3"/>
    </filter>
  </defs>
  
  <!-- Main circle background -->
  <circle cx="256" cy="256" r="240" fill="url(#bgGradient)" filter="url(#dropShadow)"/>
  
  <!-- Soft inner circle -->
  <circle cx="256" cy="256" r="224" fill="url(#softGradient)"/>
  
  <!-- Notebook-pen icon -->
  <g transform="translate(256, 256)">
    <!-- Notebook body -->
    <rect x="-60" y="-80" width="96" height="120" rx="8" fill="none" stroke="white" stroke-width="6" stroke-linecap="round" stroke-linejoin="round"/>
    
    <!-- Notebook lines -->
    <line x1="-40" y1="-50" x2="40" y2="-50" stroke="white" stroke-width="3" stroke-linecap="round" opacity="0.7"/>
    <line x1="-40" y1="-20" x2="40" y2="-20" stroke="white" stroke-width="3" stroke-linecap="round" opacity="0.7"/>
    <line x1="-40" y1="10" x2="20" y2="10" stroke="white" stroke-width="3" stroke-linecap="round" opacity="0.7"/>
    
    <!-- Pen -->
    <g transform="rotate(-45) translate(40, -40)">
      <line x1="0" y1="0" x2="0" y2="32" stroke="white" stroke-width="6" stroke-linecap="round"/>
      <polygon points="-4,-8 4,-8 2,-16 -2,-16" fill="white"/>
      <circle cx="0" cy="36" r="3" fill="white"/>
    </g>
  </g>
  
  <!-- Green accent dot -->
  <circle cx="380" cy="380" r="38" fill="url(#accentGradient)"/>
</svg>
